<svg xmlns="http://www.w3.org/2000/svg" width="512" height="512" viewBox="0 0 512 512"><rect width="512" height="512" ry=".625" style="fill:#151b24;fill-opacity:1;stroke-width:2;stroke-linecap:round"/><path d="M102.33 262.66c25.08 0 40.48-9.02 59.18-39.38l76.34-124.52h-40.92l-44 73.04-14.96-73.04H96.39l27.06 120.34c-5.06 7.26-10.12 10.56-17.6 10.56-7.26 0-13.64-2.64-18.48-6.82l-18.7 29.48c7.26 6.16 21.12 10.34 33.66 10.34m185.46-42.68c42.68 0 73.26-29.48 73.26-69.08 0-32.78-24.42-54.12-62.48-54.12-42.68 0-73.26 29.48-73.26 68.86 0 32.78 24.42 54.34 62.48 54.34m2.42-33.22c-14.3 0-22.44-9.24-22.44-23.1 0-20.02 11.66-33.66 28.38-33.66 14.3 0 22.44 9.9 22.44 23.1 0 20.02-11.66 33.66-28.38 33.66m91.96-24.86h33.22L443.33 64h-49.94zm8.36 58.08c14.74 0 26.18-11 26.18-24.86 0-11.88-9.68-20.9-23.76-20.9-14.74 0-26.18 10.12-26.18 24.42 0 11.88 9.68 21.34 23.76 21.34" aria-label="yo!" style="fill:#fbb040;stroke-width:2;stroke-linecap:round"/><path d="M45.5 445.2h106.4v-31.4H85.1V305.2H45.5zm190.4 2.8c44.8 0 77.8-30.8 77.8-72.8s-33-72.8-77.8-72.8-77.8 30.8-77.8 72.8 33 72.8 77.8 72.8m0-32.8c-21.2 0-37.8-15.8-37.8-40s16.6-40 37.8-40 37.8 15.8 37.8 40-16.6 40-37.8 40M404.5 448c20.4 0 42.6-6.2 58.8-17.8v-58h-35v38.4c-7 3.4-14 4.6-21.4 4.6-23.6 0-39.6-16.4-39.6-40 0-24.2 16-40 40-40 13.4 0 24.4 5 34 15.6l25.2-22.8c-13.8-16.6-35-25.6-61.2-25.6-45.4 0-78 30.2-78 72.8s32.6 72.8 77.2 72.8" aria-label="LOG" style="fill:#fff;stroke-width:2;stroke-linecap:round"/></svg>
